<svg xmlns="http://www.w3.org/2000/svg" width="530" height="530" viewBox="0 0 530 530"><defs><linearGradient id="b" x2="87%" y2="100%"><stop stop-color="#FFF"><animate id="a" attributeName="offset" begin="1s;a.end+6s" dur=".6s" values="-.05;.85"/></stop><stop stop-color="#666"><animate attributeName="offset" begin="1s;a.end+6s" dur=".6s" values="0;1"/></stop><stop stop-color="#fff"><animate attributeName="offset" begin="1s;a.end+6s" dur=".6s" values=".05;1.15"/></stop></linearGradient><mask id="c"><rect width="100%" height="100%" fill="url(#b)"/></mask><filter id="d"><feGaussianBlur in="SourceAlpha" stdDeviation="10"/><feMerge><feMergeNode/><feMergeNode in="SourceGraphic"/></feMerge></filter><linearGradient id="e" x1="439.498" x2="90.494" y1="88.735" y2="441.264" gradientUnits="userSpaceOnUse"><stop offset="0" stop-color="#F18F21"/><stop offset=".258" stop-color="#FFE276"/><stop offset=".378" stop-color="#FBCA5B"/><stop offset=".641" stop-color="#F18F21"/></linearGradient><linearGradient id="f" x1="141.119" x2="410.934" y1="124.198" y2="430.873" gradientUnits="userSpaceOnUse"><stop offset="0" stop-color="#F18F21"/><stop offset=".258" stop-color="#FFE276"/><stop offset=".378" stop-color="#FBCA5B"/><stop offset=".641" stop-color="#F18F21"/></linearGradient><linearGradient id="g" x1="92.774" x2="93.757" gradientTransform="matrix(274.4867 311.9845 311.9845 -274.4867 132805.4844 -167944.6719)" gradientUnits="userSpaceOnUse"><stop offset="0" stop-color="#F5AC46"/><stop offset=".258" stop-color="#FFE78E"/><stop offset=".523" stop-color="#F8BF5E"/><stop offset=".641" stop-color="#F5AC46"/><stop offset="1" stop-color="#F5AC46"/></linearGradient><linearGradient id="h" x1="92.773" x2="93.757" gradientTransform="matrix(274.4867 311.9845 311.9845 -274.4867 132805.4844 -167944.6719)" gradientUnits="userSpaceOnUse"><stop offset="0" stop-color="#F5AC46"/><stop offset=".258" stop-color="#FFE78E"/><stop offset=".523" stop-color="#F8BF5E"/><stop offset=".641" stop-color="#F5AC46"/><stop offset="1" stop-color="#F5AC46"/></linearGradient><linearGradient id="i" x1="92.773" x2="93.758" gradientTransform="matrix(274.4867 311.9845 311.9845 -274.4867 132805.4844 -167944.6719)" gradientUnits="userSpaceOnUse"><stop offset="0" stop-color="#F5AC46"/><stop offset=".258" stop-color="#FFE78E"/><stop offset=".523" stop-color="#F8BF5E"/><stop offset=".641" stop-color="#F5AC46"/><stop offset="1" stop-color="#F5AC46"/></linearGradient><linearGradient id="j" x1="92.773" x2="93.756" gradientTransform="matrix(274.4867 311.9845 311.9845 -274.4867 132805.4844 -167944.6719)" gradientUnits="userSpaceOnUse"><stop offset="0" stop-color="#F5AC46"/><stop offset=".258" stop-color="#FFE78E"/><stop offset=".523" stop-color="#F8BF5E"/><stop offset=".641" stop-color="#F5AC46"/><stop offset="1" stop-color="#F5AC46"/></linearGradient><linearGradient id="k" x1="92.774" x2="93.756" gradientTransform="matrix(274.4867 311.9845 311.9845 -274.4867 132805.4844 -167944.6719)" gradientUnits="userSpaceOnUse"><stop offset="0" stop-color="#F5AC46"/><stop offset=".258" stop-color="#FFE78E"/><stop offset=".523" stop-color="#F8BF5E"/><stop offset=".641" stop-color="#F5AC46"/><stop offset="1" stop-color="#F5AC46"/></linearGradient><linearGradient id="l" x1="92.775" x2="93.756" gradientTransform="matrix(274.4867 311.9845 311.9845 -274.4867 132805.4844 -167944.6719)" gradientUnits="userSpaceOnUse"><stop offset="0" stop-color="#F5AC46"/><stop offset=".258" stop-color="#FFE78E"/><stop offset=".523" stop-color="#F8BF5E"/><stop offset=".641" stop-color="#F5AC46"/><stop offset="1" stop-color="#F5AC46"/></linearGradient><linearGradient id="m" x1="92.775" x2="93.755" gradientTransform="matrix(274.4867 311.9845 311.9845 -274.4867 132805.4844 -167944.6719)" gradientUnits="userSpaceOnUse"><stop offset="0" stop-color="#F5AC46"/><stop offset=".258" stop-color="#FFE78E"/><stop offset=".523" stop-color="#F8BF5E"/><stop offset=".641" stop-color="#F5AC46"/><stop offset="1" stop-color="#F5AC46"/></linearGradient><linearGradient id="n" x1="92.772" x2="93.758" gradientTransform="matrix(274.4867 311.9845 311.9845 -274.4867 132805.4844 -167944.6719)" gradientUnits="userSpaceOnUse"><stop offset="0" stop-color="#F5AC46"/><stop offset=".258" stop-color="#FFE78E"/><stop offset=".523" stop-color="#F8BF5E"/><stop offset=".641" stop-color="#F5AC46"/><stop offset="1" stop-color="#F5AC46"/></linearGradient><linearGradient id="o" x1="92.776" x2="93.754" gradientTransform="matrix(274.4867 311.9845 311.9845 -274.4867 132805.4844 -167944.6719)" gradientUnits="userSpaceOnUse"><stop offset="0" stop-color="#F5AC46"/><stop offset=".258" stop-color="#FFE78E"/><stop offset=".523" stop-color="#F8BF5E"/><stop offset=".641" stop-color="#F5AC46"/><stop offset="1" stop-color="#F5AC46"/></linearGradient><linearGradient id="p" x1="92.781" x2="93.748" gradientTransform="matrix(274.4867 311.9845 311.9845 -274.4867 132805.4844 -167944.6719)" gradientUnits="userSpaceOnUse"><stop offset="0" stop-color="#F5AC46"/><stop offset=".258" stop-color="#FFE78E"/><stop offset=".523" stop-color="#F8BF5E"/><stop offset=".641" stop-color="#F5AC46"/><stop offset="1" stop-color="#F5AC46"/></linearGradient><linearGradient id="q" x1="92.772" x2="93.76" gradientTransform="matrix(274.4867 311.9845 311.9845 -274.4867 132805.4844 -167944.6719)" gradientUnits="userSpaceOnUse"><stop offset="0" stop-color="#F5AC46"/><stop offset=".258" stop-color="#FFE78E"/><stop offset=".523" stop-color="#F8BF5E"/><stop offset=".641" stop-color="#F5AC46"/><stop offset="1" stop-color="#F5AC46"/></linearGradient><linearGradient id="r" x1="92.777" x2="93.753" gradientTransform="matrix(274.4867 311.9845 311.9845 -274.4867 132805.4844 -167944.6719)" gradientUnits="userSpaceOnUse"><stop offset="0" stop-color="#F5AC46"/><stop offset=".258" stop-color="#FFE78E"/><stop offset=".523" stop-color="#F8BF5E"/><stop offset=".641" stop-color="#F5AC46"/><stop offset="1" stop-color="#F5AC46"/></linearGradient></defs><g mask="url(#c)"><circle cx="265" cy="265" r="248.04" fill="#FFB" filter="url(#d)" opacity=".8"/><circle cx="265" cy="265" r="248.04" fill="url(#e)" stroke="#AB6728" stroke-width="2"/><circle cx="261" cy="261" r="233.27" fill="#FFF"/><circle cx="270" cy="270" r="233.27" fill="#AB6728"/><circle cx="265" cy="265" r="233.27" fill="url(#f)" stroke="#FFFAC5" stroke-width="3"/><path fill="#FFFAC5" d="M263.64 31.737v-1.484C134 30.253 28.9 135.363 28.9 265S134 499.74 263.64 499.74c129.65 0 234.74-105.1 234.74-234.74 0-129.65-105.09-234.75-234.74-234.75v2.957c64.014 0 121.96 25.943 163.91 67.892 41.945 41.95 67.883 99.89 67.888 163.9 0 64-25.942 121.95-67.888 163.9-41.95 41.94-99.894 67.89-163.91 67.89-64.01 0-121.94-25.95-163.9-67.89-41.948-41.95-67.89-99.89-67.89-163.9 0-64.02 25.942-121.95 67.896-163.9 41.95-41.95 99.885-67.9 163.9-67.9v-1.47"/><path fill="url(#g)" d="M264.855 269.488l-5.91 227.062h11.814l-5.91-227.062"/><path fill="url(#g)" d="M222.49 37.284l-11.554 2.454 52.986 220.87L222.49 37.285"/><path fill="url(#g)" d="M198.914 42.958l-11.228 3.648 75.777 214.13-64.55-217.778"/><path fill="url(#g)" d="M268.48 267.64l179.61 137.763c2.374-3.122 4.672-6.294 6.893-9.53L268.48 267.64"/><path fill="url(#g)" d="M80.99 124.127l-6.938 9.546 187.172 128.69L80.99 124.126"/><path fill="url(#g)" d="M67.275 144.115l-5.903 10.227 199.59 108.413-193.687-118.64"/><path fill="url(#g)" d="M268.95 266.83l204.245 97.37c1.675-3.535 3.266-7.124 4.77-10.752L268.95 266.83"/><path fill="url(#g)" d="M55.722 165.426l-4.8 10.792 209.83 86.96-205.03-97.752"/><path fill="url(#g)" d="M269.247 265.934l219.94 52.758c.9-3.794 1.707-7.632 2.416-11.502l-222.356-41.256"/><path fill="url(#g)" d="M33.3 259.098l.007 11.81 227.06-5.9L33.3 259.1"/><path fill="url(#g)" d="M307.223 37.294l-41.44 223.315 52.97-220.81c-.785-.21-1.583-.39-2.384-.57l-8.58-1.83c-.19-.05-.39-.08-.57-.11"/><path fill="url(#g)" d="M46.458 187.832l-3.646 11.228 217.773 64.557-214.127-75.785"/><path fill="url(#h)" d="M270.76 33.456h-11.816l5.91 227.055 5.906-227.05"/><path fill="url(#h)" d="M265.326 269.467l17.86 226.434 11.74-1.23-29.6-225.2"/><path fill="url(#h)" d="M265.78 269.394l41.442 223.31c.188-.034.388-.073.58-.106l8.58-1.826c.794-.186 1.584-.37 2.375-.568l-52.976-220.81"/><path fill="url(#h)" d="M266.684 269.104l86.864 209.61c3.63-1.533 7.213-3.145 10.748-4.854l-97.612-204.756"/><path fill="url(#h)" d="M176.064 51.07l-10.784 4.8 97.747 205.03-86.963-209.83"/><path fill="url(#h)" d="M267.095 268.89l108.25 199.268c3.437-1.902 6.835-3.885 10.17-5.953L267.095 268.89"/><path fill="url(#h)" d="M133.527 74.2l-9.546 6.945L262.22 261.37 133.528 74.2"/><path fill="url(#h)" d="M267.856 268.34l147.148 172.218c2.97-2.563 5.88-5.21 8.716-7.913L267.856 268.34"/><path fill="url(#h)" d="M268.188 268.002l164.27 155.836c2.687-2.86 5.312-5.783 7.848-8.774L268.188 268.002"/><path fill="url(#h)" d="M96.724 105.68l-7.896 8.774L261.515 262 96.725 105.68"/><path fill="url(#h)" d="M268.742 267.245l192.976 118.21c2.038-3.345 4-6.742 5.866-10.2l-198.842-108.01"/><path fill="url(#h)" d="M35.19 234.93l-1.233 11.738 226.43 17.864L35.19 234.93"/><path fill="url(#h)" d="M495.363 259.13l-226.027 5.878 226.027 5.872c.044-1.956.073-3.914.073-5.88 0-1.964-.03-3.922-.073-5.87"/><path fill="url(#h)" d="M493.517 235.06l-224.2 29.473 225.407-17.783c-.303-3.924-.705-7.82-1.207-11.69"/><path fill="url(#h)" d="M482.385 188.137l-213.265 75.48 216.883-64.29c-1.11-3.77-2.32-7.5-3.618-11.19"/><path fill="url(#h)" d="M260.585 266.39L42.812 330.944l3.646 11.226 214.127-75.78"/><path fill="url(#h)" d="M260.753 266.83l-209.83 86.96 4.8 10.786 205.03-97.746"/><path fill="url(#h)" d="M432.466 106.167L268.188 262l172.118-147.065c-2.536-2.99-5.16-5.914-7.84-8.768"/><path fill="url(#h)" d="M353.548 51.29L266.684 260.9l97.612-204.757c-3.535-1.71-7.117-3.33-10.748-4.854"/><path fill="url(#h)" d="M263.027 269.104L165.28 474.128l10.792 4.81 86.955-209.834"/><path fill="url(#h)" d="M330.758 43.07l-64.52 217.666 75.723-213.96c-3.69-1.33-7.42-2.563-11.2-3.706"/><path fill="url(#h)" d="M263.47 269.273l-75.792 214.124 11.236 3.647 64.556-217.77"/><path fill="url(#h)" d="M283.18 34.105l-17.854 226.428 29.6-225.197-11.747-1.23"/><path fill="url(#h)" d="M264.378 269.467l-29.602 225.2 11.74 1.234 17.862-226.43"/><path fill="url(#h)" d="M269.12 266.39l213.265 75.477c1.3-3.69 2.508-7.417 3.613-11.194L269.12 266.39"/><path fill="url(#i)" d="M246.517 34.105l-11.74 1.23 29.6 225.198-17.86-226.428"/><path fill="url(#i)" d="M260.96 267.245L61.373 375.665l5.903 10.225L260.96 267.245"/><path fill="url(#i)" d="M375.344 61.843l-108.25 199.272 118.42-193.317c-3.334-2.075-6.733-4.05-10.17-5.955"/><path fill="url(#i)" d="M262.602 268.89l-118.64 193.69 10.234 5.903L262.602 268.89"/><path fill="url(#j)" d="M266.24 269.273l64.518 217.653c3.774-1.137 7.512-2.37 11.203-3.695l-75.72-213.95"/><path fill="url(#j)" d="M154.196 61.518l-10.235 5.906 118.65 193.69L154.2 61.52"/><path fill="url(#j)" d="M39.588 211.084l-2.45 11.55 223.324 41.432-220.874-52.982"/><path fill="url(#j)" d="M260.387 265.473l-226.43 17.86 1.233 11.74 225.197-29.6"/><path fill="url(#j)" d="M489.187 211.312l-219.94 52.754 222.357-41.255c-.71-3.86-1.516-7.7-2.417-11.49"/><path fill="url(#j)" d="M263.922 269.394l-52.986 220.87 11.553 2.454 41.43-223.324"/><path fill="url(#k)" d="M267.49 268.635l128.407 186.75c3.22-2.245 6.393-4.57 9.49-6.972L267.49 268.635"/><path fill="url(#k)" d="M114.3 88.975l-8.767 7.902L261.85 261.67 114.3 88.974"/><path fill="url(#k)" d="M269.316 265.473l224.2 29.47c.502-3.86.904-7.765 1.207-11.688l-225.407-17.782"/><path fill="url(#k)" d="M260.462 265.934L37.137 307.368l2.45 11.554 220.875-52.988"/><path fill="url(#k)" d="M395.897 74.617L267.49 261.37l137.9-179.78c-3.1-2.408-6.272-4.732-9.493-6.973"/><path fill="url(#l)" d="M473.202 165.802L268.95 263.178l209.015-86.618c-1.5-3.633-3.088-7.222-4.763-10.758"/><path fill="url(#m)" d="M461.725 144.55L268.742 262.754l198.842-108.01c-1.867-3.452-3.828-6.853-5.86-10.196"/><path fill="url(#n)" d="M448.092 124.598L268.48 262.362l186.503-128.228c-2.213-3.24-4.51-6.418-6.89-9.536"/><path fill="url(#n)" d="M262.215 268.635l-138.242 180.22 9.554 6.95 128.688-187.17"/><path fill="url(#o)" d="M261.224 267.64L74.052 396.33l6.94 9.552 180.232-138.24"/><path fill="url(#p)" d="M261.515 268.002L88.82 415.554l7.904 8.772 164.79-156.324"/><path fill="url(#q)" d="M415.005 89.443L267.855 261.67 423.722 97.355c-2.836-2.707-5.74-5.35-8.715-7.913"/><path fill="url(#r)" d="M261.85 268.34L105.53 433.126l8.777 7.903L261.85 268.34"/><g fill="#AB6828"><path d="M427.638,145.617c-1.955-2.231-4.547-4.026-6.631-5.291 c-29.43-17.91-65.732-2.769-96.218-17.02c-10.444-4.88-20.221-11.367-30.561-16.526 c-14.687-7.314-31.77-13.87-47.432-18.033c-2.47-0.664-4.888-2.246-7.137-3.128c-2.248-0.871-4.458,0.574-5.355,1.661 c-6.061,7.315-2.557,18.533,0.939,26.18c1.143,2.48,2.068,4.737,3.879,6.709c1.529,1.667,4.762,2.358,4.693,5.305 c-0.068,3.188-3.226,3.872-5.522,3.691c-12.151-0.964-24.122-0.408-36.36-2.578c-13.57-2.41-27.045-5.521-40.812-6.163 c-14.925-0.693-29.869-0.188-44.784-0.752c-4.136-0.161-6.96,1.187-7.979,2.495c-1.035,1.316-0.464,4.666,4.15,13.563 c3.802,7.331,13.057,8.559,19.834,9.749c10.271,1.804,20.533,3.564,30.735,5.793c28.063,6.135,55.639,14.587,82.632,25.034 c7.376,2.85,16.167,5.472,17.415,3.301c1.233-2.163-1.297-6.716-7.059-9.963c-5.776-3.24-20.566-8.091-29.043-11.023 c-8.468-2.932-22.081-6.46-30.548-9.571c-8.445-3.117-7.239-4.758-6.463-6.965c1.624-4.595,28.227,2.751,31.61,3.438 c13.306,2.69,26.521,5.878,39.758,8.901c16.649,3.794,11.306,24.542,11.229,38.617c-0.084,14.971,2.512,54.251,4.333,57.464 c2.024-1.118,2.622-70.172,3.024-87.516c0.205-8.836-5.444-16.058-9.212-23.304c-2.399-4.614-14.669-32.437-1.01-29.607 c7.864,1.631,13.024,10.51,20.818,12.661c3.887,1.063,8.176,0.865,11.953,2.437c5.071,2.103,7.327,6.768,0.532,8.689 c-2.573,0.718-10.527,0.549-13.821-0.41c-3.303-0.957-6.092-0.024-7.458,1.726c-1.382,1.753-0.862,6.665,2.036,10.384 c10.815,13.835,38.201,4.092,51.81,2.488c9.61-1.13,19.628-0.684,29.266-0.273c5.599,0.239,11.349,0.537,16.852,1.75 c2.624,0.574,10.474,3.511,4.603,7.684c-6.427,4.568-17.154,4.39-24.412,6.108c-7.782,1.846-19.437,4.382-25.123,11.194 c-4.485,5.383-2.409,11.741,0.457,17.337c2.236,4.358,5.715,12.065,7.412,15.21c1.68,3.162,3.205,5.374,4.694,5.256 c1.47-0.12,0.579-5.759-0.239-9.304c-0.819-3.547-3.738-10.281-5.105-15.042c-2.585-8.99,7.184-9.271,12.845-11.304 c5.105-1.831,10.323-3.188,15.587-4.265c12.215-2.495,24.656-3.384,36.839-6.067c6.138-1.351,18.621-3.477,20.986-11.468 C431.343,151.3,429.894,148.173,427.638,145.617z"/><path d="M419.688,109.034c-2.599-2.068-8.956-0.94-10.953,0.515 c-2.871,2.092-2.768,6.973-0.531,11.338c2.24,4.358,7.844,5.271,9.528,5.171c1.689-0.103,4.349-2.444,5.825-5.572 C425.013,117.35,422.271,111.095,419.688,109.034z M418.628,118.426c-0.597,1.265-1.667,2.212-2.357,2.246 c-0.672,0.037-2.939-0.324-3.844-2.084c-0.889-1.758-0.93-3.726,0.22-4.563c0.799-0.595,3.369-1.05,4.418-0.212 C418.102,114.643,419.217,117.162,418.628,118.426z"/><path d="M127.486,308.938c-7.156,0-12.729-1.536-16.721-4.61c-4.175-3.21-6.261-7.936-6.261-14.174 c0-5.643,1.972-10.139,5.917-13.487c4.129-3.485,9.816-5.229,17.064-5.229v-4.816c0.551,0,1.399,0.068,2.546,0.206 s2.019,0.207,2.615,0.207c0.551,0,1.398-0.069,2.546-0.207c1.146-0.138,2.018-0.206,2.614-0.206v4.61 c8.073,0,14.082,1.95,18.028,5.849c3.303,3.258,4.954,7.547,4.954,12.867c0,5.551-2.054,10.07-6.158,13.556 c-4.106,3.486-9.736,5.229-16.893,5.229l0.068,5.092c-0.55,0-1.399-0.059-2.546-0.172c-1.146-0.115-2.019-0.172-2.614-0.172 c-0.551,0-1.4,0.057-2.546,0.172c-1.147,0.113-2.02,0.172-2.615,0.172V308.938z M127.486,305.359v-30.413 c-3.395,0-6.078,1.548-8.051,4.645c-1.973,3.096-2.958,7.03-2.958,11.801c0,3.67,0.939,6.836,2.821,9.496 C121.408,303.87,124.137,305.359,127.486,305.359z M137.739,274.946l0.068,30.139c3.328,0,6.04-1.675,8.138-5.023 c1.914-3.073,2.872-6.789,2.872-11.147c0-3.669-0.924-6.835-2.77-9.495C143.97,276.437,141.201,274.946,137.739,274.946z"/><path d="M173.725,299.442c-1.469,4.169-2.535,7.237-3.199,9.205 c-0.666,1.969-1.205,3.693-1.617,5.176l-3.234-0.344l-3.303,0.344l19.68-47.822l2.614,0.206l2.615-0.206l19.197,47.822 c-0.643,0-1.767-0.059-3.372-0.172c-1.605-0.115-2.477-0.172-2.614-0.172c-0.688,0-1.823,0.057-3.406,0.172 c-1.582,0.113-2.397,0.172-2.442,0.172c-1.056-3.364-1.835-5.807-2.34-7.33c-0.918-2.719-1.767-5.068-2.546-7.051H173.725z M188.175,295.245l-6.124-16.033l-6.469,16.033H188.175z"/><path d="M213.29,266.62h17.752c3.945,0,7.088,0.734,9.427,2.202c2.844,1.788,4.267,4.541,4.267,8.257 c0,3.027-1.147,5.551-3.44,7.568c-2.064,1.789-4.679,2.914-7.845,3.372v0.62c3.304,0.367,5.986,1.262,8.051,2.684 c2.891,1.973,4.335,4.862,4.335,8.67c0,4.449-1.743,7.89-5.229,10.32c-3.027,2.111-6.835,3.166-11.422,3.166H213.29V266.62z M223.542,286.851h2.202c1.421,0,2.534-0.092,3.337-0.275s1.662-0.688,2.58-1.514c0.918-0.826,1.617-1.858,2.1-3.098 c0.481-1.238,0.722-2.568,0.722-3.99c0-2.477-0.643-4.357-1.927-5.643c-1.284-1.283-3.096-1.926-5.436-1.926l-3.578,0.205 V286.851z M223.542,309.488h3.51c2.063,0,3.933-0.813,5.607-2.442c1.674-1.629,2.512-3.819,2.512-6.572 c0-3.578-1.01-6.123-3.027-7.637c-1.789-1.33-4.656-1.996-8.602-1.996V309.488z"/><path d="M277.28,314.649c-7.706,0-13.875-2.153-18.508-6.459c-4.634-4.307-6.95-10.33-6.95-18.072 c0-7.1,2.362-12.939,7.088-17.521c4.954-4.811,11.627-7.216,20.022-7.216c8.854,0,15.527,2.75,20.023,8.246 c3.624,4.444,5.437,9.849,5.437,16.216c0,6.964-2.408,12.781-7.226,17.454C292.12,312.198,285.491,314.649,277.28,314.649z M263.245,292.11c0,5.039,1.101,9.229,3.302,12.57c2.568,3.894,6.262,5.84,11.078,5.84c4.999,0,8.876-2.222,11.629-6.664 c2.477-4.029,3.715-9.135,3.715-15.318c0-5.037-1.101-9.296-3.303-12.777c-2.661-4.167-6.399-6.25-11.216-6.25 c-4.862,0-8.578,1.832-11.146,5.494C264.597,278.853,263.245,284.555,263.245,292.11z"/><path d="M322.97,313.823c-0.551,0-1.4-0.059-2.546-0.172c-1.147-0.115-2.02-0.172-2.615-0.172 c-0.597,0-1.469,0.057-2.614,0.172c-1.147,0.113-1.996,0.172-2.546,0.172V266.62h16.927c9.815,0,14.725,3.877,14.725,11.629 c0,5.688-1.995,9.701-5.986,12.041c-3.303,1.928-8.418,2.891-15.344,2.891V313.823z M322.97,289.396 c1.604,0,3.118-0.16,4.541-0.483c2.109-0.598,3.692-1.772,4.748-3.521c0.917-1.566,1.376-3.523,1.376-5.871 c0-2.715-0.608-4.914-1.823-6.595c-1.216-1.681-2.742-2.521-4.576-2.521h-4.266V289.396z"/><path d="M350.906,266.465c0.55,0,1.398,0.095,2.546,0.284c1.146,0.189,2.018,0.284,2.614,0.284 c0.551,0,1.398-0.095,2.546-0.284c1.146-0.189,2.019-0.284,2.615-0.284v32.272c3.853-4.083,8.395-9.381,13.624-15.896 c4.999-6.237,9.174-11.697,12.523-16.377c0.732,0,1.329,0,1.789,0c0.366,0,0.939,0,1.72,0c0.779,0,1.353,0,1.721,0v47.358 c-0.551,0-1.4-0.059-2.546-0.172c-1.147-0.115-2.042-0.172-2.684-0.172c-0.506,0-1.331,0.057-2.478,0.172 c-1.147,0.113-2.02,0.172-2.615,0.172v-32.615c-3.99,4.551-8.497,9.952-13.521,16.204s-9.255,11.722-12.695,16.411 c-0.321,0-0.688,0-1.101,0s-0.712,0-0.895,0c-0.551,0-1.091,0-1.617,0c-0.528,0-1.044,0-1.548,0V266.465z"/><path d="M421.298,313.823c-0.597,0-1.595-0.059-2.993-0.172c-1.4-0.115-2.122-0.172-2.168-0.172 c-0.55,0-1.399,0.057-2.546,0.172c-1.146,0.113-2.019,0.172-2.614,0.172v-42.318c-2.433,0-4.554,0.082-6.365,0.242 c-1.813,0.16-3.956,0.401-6.434,0.722c0.092-0.642,0.172-1.204,0.241-1.686c0.068-0.481,0.104-0.905,0.104-1.272 c0-0.643-0.047-1.205-0.138-1.687c-0.093-0.481-0.162-0.883-0.207-1.204h35.437c-0.138,0.963-0.275,1.927-0.413,2.891 c0,0.459,0.046,0.952,0.138,1.479c0.092,0.528,0.184,1.021,0.275,1.479c-3.349-0.413-5.367-0.642-6.055-0.688 c-2.064-0.182-4.152-0.275-6.262-0.275V313.823z"/><path d="M163.06,372.006c-1.331-2.844-3.349-6.513-6.055-11.009c-0.505-0.826-3.097-5-7.775-12.523 c-3.12-5-5.345-8.693-6.675-11.078c0.688,0,1.721,0.068,3.097,0.206s2.408,0.206,3.097,0.206 c0.688,0,1.72-0.068,3.096-0.206c1.377-0.138,2.409-0.206,3.097-0.206c0.596,1.238,1.834,3.486,3.716,6.742 c0.366,0.598,2.179,3.717,5.436,9.358c2.202,3.763,3.555,6.147,4.061,7.156c1.101-1.696,2.958-5.343,5.573-10.94 c1.376-2.936,3.233-7.041,5.573-12.316l3.372,0.206l3.303-0.206c-1.331,2.385-3.785,7.041-7.363,13.968 c-3.303,6.423-6.398,12.616-9.289,18.579c-3.44,7.11-5.666,11.973-6.674,14.587c-0.275,0-0.734-0.046-1.377-0.138 c-0.643-0.093-1.146-0.138-1.514-0.138l-2.958,0.206c0.779-1.33,2.063-3.829,3.853-7.5 C161.203,375.813,162.004,374.163,163.06,372.006z"/><path d="M228.29,376.612l-1.514,5.874c-2.019,1.002-4.187,1.743-6.502,2.22 c-2.317,0.479-4.691,0.718-7.122,0.718c-7.523,0-13.67-2.084-18.44-6.253c-4.954-4.305-7.432-9.939-7.432-16.904 c0-8.564,2.684-15.161,8.051-19.788c4.908-4.215,11.354-6.322,19.335-6.322c2.385,0,4.816,0.287,7.294,0.86 c2.478,0.574,4.725,1.41,6.743,2.512l-1.583,7.087h-0.963c-1.285-1.834-2.971-3.348-5.058-4.541 c-2.088-1.192-4.209-1.789-6.364-1.789c-5.322,0-9.427,2.243-12.317,6.731c-2.477,3.847-3.716,8.609-3.716,14.289 c0,6.045,1.422,10.889,4.267,14.529c2.844,3.641,6.881,5.46,12.11,5.46c2.155,0,4.346-0.464,6.571-1.392 c2.225-0.928,4.14-2.16,5.745-3.7L228.29,376.612z"/><path d="M237.303,337.396c4.128,0,7.936,0,11.422,0c3.485,0,6.628,0,9.427,0h1.514h1.721h1.72h1.651 h1.513h1.445h1.308h1.17h1.032h0.963h0.825c0.826,0,1.675,0,2.547,0c0.87,0,1.765,0,2.683,0h0.758v47.203 c-0.551,0-1.4-0.059-2.546-0.173c-1.147-0.114-2.042-0.172-2.684-0.172c-0.506,0-1.331,0.058-2.478,0.172 c-1.147,0.114-2.02,0.173-2.615,0.173v-42.111l-10.527-0.207l-10.527,0.207v42.111c-0.551,0-1.4-0.059-2.546-0.173 c-1.147-0.114-2.02-0.172-2.615-0.172c-0.551,0-1.399,0.058-2.546,0.172c-1.147,0.114-2.019,0.173-2.614,0.173V337.396z"/><path d="M291.18,337.396c0.779,0,1.789,0.058,3.027,0.172c1.238,0.115,1.949,0.172,2.133,0.172 c0.78,0,1.422-0.023,1.927-0.068c1.972-0.184,3.051-0.275,3.234-0.275v47.203c-0.78,0-1.423-0.024-1.927-0.069 c-1.973-0.185-3.051-0.275-3.234-0.275c-0.78,0-1.789,0.058-3.027,0.172s-1.95,0.173-2.133,0.173V337.396z"/><path d="M341.479,346.753l-7.981,11.354l0.963,1.586c2.247,4.091,4.507,8.17,6.777,12.237 c2.271,4.068,4.508,8.285,6.709,12.651c-0.643,0-1.766-0.055-3.371-0.164c-1.606-0.109-2.478-0.163-2.615-0.163 c-0.643,0-1.743,0.054-3.303,0.163s-2.432,0.164-2.614,0.164c-1.423-2.853-3.303-6.51-5.643-10.973 c-1.147-2.162-2.294-4.348-3.44-6.557l-6.33,9.977c-0.597,0.926-1.377,2.241-2.34,3.949 c-0.734,1.248-1.376,2.449-1.927,3.604l-3.44-0.327l-3.371,0.327c1.926-2.768,3.623-5.213,5.092-7.335 c2.431-3.505,4.082-5.927,4.954-7.265c1.283-1.891,2.866-4.313,4.747-7.265l-14.105-25.321c0.642,0,1.651,0.068,3.027,0.206 c1.377,0.138,2.408,0.206,3.097,0.206c0.642,0,1.651-0.068,3.027-0.206c1.377-0.138,2.408-0.206,3.097-0.206 c1.192,2.569,2.936,6.032,5.229,10.39c1.101,2.11,2.202,4.197,3.303,6.262c3.44-5.55,6.903-11.101,10.391-16.651 l3.371,0.206l3.372-0.206L341.479,346.753z"/><path d="M371.616,372.006c-1.331-2.844-3.349-6.513-6.055-11.009c-0.505-0.826-3.097-5-7.775-12.523 c-3.12-5-5.345-8.693-6.675-11.078c0.688,0,1.721,0.068,3.097,0.206s2.408,0.206,3.097,0.206 c0.688,0,1.72-0.068,3.096-0.206c1.377-0.138,2.409-0.206,3.097-0.206c0.596,1.238,1.834,3.486,3.716,6.742 c0.366,0.598,2.179,3.717,5.436,9.358c2.202,3.763,3.555,6.147,4.061,7.156c1.101-1.696,2.958-5.343,5.573-10.94 c1.376-2.936,3.233-7.041,5.573-12.316l3.372,0.206l3.303-0.206c-1.331,2.385-3.785,7.041-7.363,13.968 c-3.303,6.423-6.398,12.616-9.289,18.579c-3.44,7.11-5.666,11.973-6.674,14.587c-0.275,0-0.734-0.046-1.377-0.138 c-0.643-0.093-1.146-0.138-1.514-0.138l-2.958,0.206c0.779-1.33,2.063-3.829,3.853-7.5 C369.759,375.813,370.561,374.163,371.616,372.006z"/><path d="M181.944,463.642v-3.839c5.356-5,9.136-8.689,11.338-11.071 c4.464-4.76,7.886-9.195,10.268-13.302c2.976-5.179,4.464-10.118,4.464-14.82c0-3.451-0.745-6.339-2.232-8.66 c-1.785-2.737-4.345-4.106-7.678-4.106c-2.798,0-4.971,1.518-6.518,4.553c-1.25,2.5-1.875,5.328-1.875,8.482l-0.893,0.178 c-2.143-2.618-4.464-4.582-6.964-5.893c1.429-3.809,3.824-6.65,7.188-8.525c3.361-1.875,7.216-2.813,11.562-2.813 c5.893,0,10.653,1.221,14.284,3.66c4.226,2.857,6.339,7.113,6.339,12.768c0,4.105-1.102,7.737-3.304,10.891 c-1.249,1.846-2.827,3.721-4.731,5.625c-0.655,0.656-1.756,1.639-3.303,2.946c-2.857,2.441-5.714,4.94-8.571,7.499 c-2.381,2.143-4.196,3.84-5.446,5.09l0.09,0.446h11.428c1.487,0,3.778-0.119,6.874-0.357 c3.095-0.237,5.415-0.357,6.964-0.357c-0.12,1.311-0.224,2.441-0.313,3.393c-0.089,0.953-0.134,1.757-0.134,2.411 c0,1.25,0.045,2.292,0.134,3.124c0.089,0.835,0.192,1.728,0.313,2.679H181.944z"/><path d="M271.222,432.394c0,7.321-0.566,12.828-1.696,16.518c-1.131,3.69-2.768,6.815-4.91,9.374 c-3.81,4.405-8.69,6.606-14.642,6.606c-3.869,0-7.143-0.745-9.82-2.232c-2.679-1.486-4.941-3.839-6.785-7.053 c-1.846-3.214-3.096-6.502-3.75-9.865c-0.655-3.361-0.982-7.156-0.982-11.383c0-3.75,0.327-7.5,0.982-11.249 c0.654-3.75,1.755-6.903,3.304-9.464c3.928-6.547,9.7-9.82,17.319-9.82c7.618,0,13.183,3.006,16.695,9.018 C269.794,417.724,271.222,424.241,271.222,432.394z M250.063,460.874c3.095,0,5.237-2.321,6.429-6.964 c1.011-3.928,1.518-10.504,1.518-19.73c0-9.821-0.551-16.664-1.651-20.534c-1.103-3.868-3.141-5.803-6.116-5.803 c-3.273,0-5.49,2.203-6.651,6.606c-1.16,4.405-1.74,11.398-1.74,20.98c0,9.345,0.415,15.624,1.25,18.838 C244.23,458.673,246.551,460.874,250.063,460.874z"/><path d="M291.398,413.646c-3.393,1.965-6.875,3.75-10.445,5.357 c-0.478-0.834-0.998-1.592-1.563-2.277c-0.566-0.684-1.266-1.413-2.099-2.188v-0.714c4.047-1.309,8.393-2.976,13.035-4.999 c3.451-1.547,7.678-3.541,12.678-5.982l0.714,0.447v60.798c-1.013-0.12-1.756-0.179-2.232-0.179 c-2.084-0.179-3.393-0.268-3.928-0.268c-1.31,0-2.5,0.059-3.571,0.179c-1.071,0.118-1.935,0.208-2.589,0.268V413.646z"/><path d="M358.535,404.36l0.625,1.697c-4.167,7.083-7.738,13.332-10.714,18.748 c-3.69,6.727-7.083,13.229-10.178,19.508c-3.096,6.279-6.131,12.871-9.106,19.774c-1.31-0.12-2.441-0.223-3.393-0.313 c-0.952-0.089-1.756-0.134-2.41-0.134c-1.25,0-2.292,0.045-3.125,0.134c-0.834,0.09-1.727,0.192-2.678,0.313 c5.653-8.57,11.1-17.021,16.338-25.354c5.535-8.868,10.088-16.518,13.659-22.945l-29.729,0.804 c0.118-1.011,0.223-2.157,0.313-3.437c0.089-1.279,0.134-2.188,0.134-2.724c0-1.309-0.045-2.38-0.134-3.214 c-0.09-0.833-0.194-1.785-0.313-2.857H358.535z"/></g><g fill="#FFFAC5" stroke="#AB6728" stroke-width=".625"><path d="M424.095,142.782c-1.955-2.231-4.547-4.026-6.631-5.291 c-29.43-17.91-65.732-2.769-96.218-17.02c-10.444-4.88-20.221-11.367-30.561-16.526 c-14.687-7.314-31.771-13.87-47.433-18.033c-2.47-0.664-4.888-2.246-7.137-3.128c-2.248-0.871-4.458,0.574-5.355,1.661 c-6.061,7.315-2.557,18.533,0.939,26.18c1.143,2.48,2.068,4.737,3.879,6.709c1.529,1.667,4.762,2.358,4.693,5.305 c-0.068,3.188-3.226,3.872-5.522,3.691c-12.151-0.964-24.122-0.408-36.36-2.578c-13.57-2.41-27.045-5.521-40.812-6.163 c-14.925-0.693-29.869-0.188-44.784-0.752c-4.136-0.161-6.96,1.187-7.979,2.495c-1.035,1.316-0.464,4.666,4.15,13.563 c3.802,7.331,13.057,8.559,19.834,9.749c10.271,1.804,20.533,3.564,30.735,5.793c28.063,6.135,55.639,14.587,82.632,25.034 c7.376,2.85,16.167,5.472,17.415,3.301c1.233-2.163-1.297-6.716-7.059-9.963c-5.776-3.24-20.566-8.091-29.043-11.023 c-8.468-2.932-22.081-6.46-30.548-9.571c-8.445-3.117-7.239-4.758-6.463-6.965c1.624-4.595,28.227,2.751,31.61,3.438 c13.306,2.69,26.521,5.878,39.758,8.901c16.649,3.794,11.307,24.542,11.229,38.617 c-0.084,14.971,2.512,54.251,4.333,57.464c2.024-1.118,2.622-70.172,3.024-87.516c0.205-8.836-5.444-16.058-9.212-23.304 c-2.399-4.614-14.67-32.437-1.01-29.607c7.864,1.631,13.024,10.51,20.818,12.661c3.887,1.063,8.176,0.865,11.953,2.437 c5.071,2.103,7.327,6.768,0.532,8.689c-2.573,0.718-10.527,0.549-13.821-0.41c-3.303-0.957-6.092-0.024-7.458,1.726 c-1.382,1.753-0.862,6.665,2.036,10.384c10.815,13.835,38.201,4.092,51.81,2.488c9.61-1.13,19.628-0.684,29.266-0.273 c5.599,0.239,11.349,0.537,16.852,1.75c2.624,0.574,10.474,3.511,4.603,7.684c-6.427,4.568-17.154,4.39-24.412,6.108 c-7.782,1.846-19.437,4.382-25.123,11.194c-4.485,5.383-2.409,11.741,0.457,17.337c2.236,4.358,5.715,12.065,7.412,15.21 c1.68,3.162,3.205,5.374,4.694,5.256c1.47-0.12,0.579-5.759-0.239-9.304c-0.819-3.547-3.738-10.281-5.105-15.042 c-2.585-8.99,7.184-9.271,12.845-11.304c5.105-1.831,10.323-3.188,15.587-4.265c12.215-2.495,24.656-3.384,36.839-6.067 c6.138-1.351,18.621-3.477,20.986-11.468C427.8,148.465,426.351,145.338,424.095,142.782z"/><path d="M416.146,106.199c-2.599-2.068-8.956-0.94-10.953,0.515 c-2.871,2.092-2.768,6.973-0.531,11.338c2.24,4.358,7.844,5.271,9.528,5.171c1.689-0.103,4.349-2.444,5.825-5.572 C421.47,114.515,418.729,108.26,416.146,106.199z M415.085,115.591c-0.597,1.265-1.667,2.212-2.357,2.246 c-0.672,0.037-2.939-0.324-3.844-2.084c-0.889-1.758-0.93-3.726,0.22-4.563c0.799-0.595,3.369-1.05,4.418-0.212 C414.559,111.808,415.674,114.327,415.085,115.591z"/><path d="M123.942,306.103c-7.156,0-12.729-1.536-16.721-4.61c-4.175-3.21-6.261-7.936-6.261-14.174 c0-5.643,1.972-10.139,5.917-13.487c4.129-3.485,9.816-5.229,17.064-5.229v-4.816c0.551,0,1.399,0.069,2.546,0.207 s2.019,0.207,2.615,0.207c0.551,0,1.398-0.069,2.546-0.207c1.146-0.138,2.018-0.207,2.614-0.207v4.61 c8.073,0,14.082,1.95,18.028,5.849c3.303,3.258,4.954,7.547,4.954,12.867c0,5.551-2.054,10.07-6.158,13.556 c-4.106,3.486-9.736,5.229-16.893,5.229l0.068,5.092c-0.55,0-1.399-0.059-2.546-0.172 c-1.146-0.115-2.019-0.172-2.614-0.172c-0.551,0-1.4,0.057-2.546,0.172c-1.147,0.113-2.02,0.172-2.615,0.172V306.103z M123.942,302.524v-30.413c-3.395,0-6.078,1.548-8.051,4.645c-1.973,3.096-2.958,7.03-2.958,11.801 c0,3.67,0.939,6.836,2.821,9.496C117.864,301.035,120.594,302.524,123.942,302.524z M134.195,272.111l0.068,30.139 c3.328,0,6.04-1.675,8.138-5.023c1.914-3.073,2.872-6.789,2.872-11.147c0-3.669-0.924-6.835-2.77-9.495 C140.427,273.602,137.657,272.111,134.195,272.111z"/><path d="M170.182,296.607c-1.469,4.169-2.535,7.237-3.199,9.205 c-0.666,1.969-1.205,3.693-1.617,5.176l-3.234-0.344l-3.303,0.344l19.68-47.822l2.614,0.207l2.615-0.207l19.197,47.822 c-0.643,0-1.767-0.059-3.372-0.172c-1.605-0.115-2.477-0.172-2.614-0.172c-0.688,0-1.823,0.057-3.406,0.172 c-1.582,0.113-2.397,0.172-2.442,0.172c-1.056-3.364-1.835-5.807-2.34-7.33c-0.918-2.719-1.767-5.068-2.546-7.051H170.182 z M184.632,292.41l-6.124-16.033l-6.469,16.033H184.632z"/><path d="M209.746,263.785h17.752c3.945,0,7.088,0.734,9.427,2.202 c2.844,1.788,4.267,4.541,4.267,8.257c0,3.027-1.147,5.551-3.44,7.568c-2.064,1.789-4.679,2.914-7.845,3.372v0.62 c3.304,0.367,5.986,1.262,8.051,2.684c2.891,1.973,4.335,4.862,4.335,8.67c0,4.449-1.743,7.89-5.229,10.32 c-3.027,2.111-6.835,3.166-11.422,3.166h-15.895V263.785z M219.998,284.016h2.202c1.421,0,2.534-0.092,3.337-0.275 s1.662-0.688,2.58-1.514c0.918-0.826,1.617-1.858,2.1-3.098c0.481-1.238,0.722-2.568,0.722-3.99 c0-2.477-0.643-4.357-1.927-5.643c-1.284-1.283-3.096-1.926-5.436-1.926l-3.578,0.205V284.016z M219.998,306.653h3.51 c2.063,0,3.933-0.813,5.607-2.442c1.674-1.629,2.512-3.819,2.512-6.572c0-3.578-1.01-6.123-3.027-7.637 c-1.789-1.33-4.656-1.996-8.602-1.996V306.653z"/><path d="M273.737,311.814c-7.706,0-13.876-2.153-18.509-6.459c-4.634-4.307-6.95-10.33-6.95-18.072 c0-7.1,2.362-12.939,7.088-17.521c4.954-4.811,11.628-7.215,20.022-7.215c8.854,0,15.527,2.75,20.023,8.246 c3.624,4.444,5.437,9.849,5.437,16.216c0,6.964-2.408,12.781-7.226,17.454 C288.577,309.363,281.948,311.814,273.737,311.814z M259.701,289.275c0,5.039,1.101,9.229,3.303,12.57 c2.568,3.894,6.262,5.84,11.078,5.84c4.999,0,8.876-2.222,11.629-6.664c2.477-4.029,3.715-9.135,3.715-15.318 c0-5.037-1.101-9.296-3.303-12.777c-2.661-4.167-6.399-6.25-11.216-6.25c-4.862,0-8.578,1.832-11.146,5.494 C261.054,276.018,259.701,281.72,259.701,289.275z"/><path d="M319.427,310.988c-0.551,0-1.4-0.059-2.546-0.172c-1.147-0.115-2.02-0.172-2.615-0.172 c-0.597,0-1.469,0.057-2.614,0.172c-1.147,0.113-1.996,0.172-2.546,0.172v-47.203h16.927 c9.815,0,14.725,3.877,14.725,11.629c0,5.688-1.995,9.701-5.986,12.041c-3.303,1.928-8.418,2.891-15.344,2.891V310.988z M319.427,286.561c1.604,0,3.118-0.16,4.541-0.483c2.109-0.598,3.692-1.772,4.748-3.521 c0.917-1.566,1.376-3.523,1.376-5.871c0-2.715-0.608-4.914-1.823-6.595c-1.216-1.681-2.742-2.521-4.576-2.521h-4.266 V286.561z"/><path d="M347.363,263.63c0.55,0,1.398,0.095,2.546,0.284c1.146,0.189,2.018,0.284,2.614,0.284 c0.551,0,1.398-0.095,2.546-0.284c1.146-0.189,2.019-0.284,2.615-0.284v32.272c3.853-4.083,8.395-9.381,13.624-15.896 c4.999-6.237,9.174-11.697,12.523-16.376c0.732,0,1.329,0,1.789,0c0.366,0,0.939,0,1.72,0c0.779,0,1.353,0,1.721,0v47.358 c-0.551,0-1.4-0.059-2.546-0.172c-1.147-0.115-2.042-0.172-2.684-0.172c-0.506,0-1.331,0.057-2.478,0.172 c-1.147,0.113-2.02,0.172-2.615,0.172v-32.615c-3.99,4.551-8.497,9.952-13.521,16.204s-9.255,11.722-12.695,16.411 c-0.321,0-0.688,0-1.101,0s-0.712,0-0.895,0c-0.551,0-1.091,0-1.617,0c-0.528,0-1.044,0-1.548,0V263.63z"/><path d="M417.755,310.988c-0.597,0-1.595-0.059-2.993-0.172c-1.4-0.115-2.122-0.172-2.168-0.172 c-0.55,0-1.399,0.057-2.546,0.172c-1.146,0.113-2.019,0.172-2.614,0.172V268.67c-2.433,0-4.554,0.082-6.365,0.242 c-1.813,0.16-3.956,0.401-6.434,0.722c0.092-0.642,0.172-1.204,0.241-1.686c0.068-0.481,0.104-0.905,0.104-1.272 c0-0.643-0.047-1.205-0.138-1.687c-0.093-0.481-0.162-0.883-0.207-1.204h35.437c-0.138,0.963-0.275,1.927-0.413,2.891 c0,0.459,0.046,0.952,0.138,1.479c0.092,0.528,0.184,1.021,0.275,1.479c-3.349-0.413-5.367-0.642-6.055-0.688 c-2.064-0.182-4.152-0.275-6.262-0.275V310.988z"/><path d="M159.517,369.171c-1.331-2.844-3.349-6.513-6.055-11.009 c-0.505-0.826-3.097-5-7.775-12.523c-3.12-5-5.345-8.693-6.675-11.078c0.688,0,1.721,0.068,3.097,0.206 s2.408,0.206,3.097,0.206c0.688,0,1.72-0.068,3.096-0.206c1.377-0.138,2.409-0.206,3.097-0.206 c0.596,1.238,1.834,3.486,3.716,6.742c0.366,0.598,2.179,3.717,5.436,9.358c2.202,3.763,3.555,6.147,4.061,7.156 c1.101-1.696,2.958-5.343,5.573-10.94c1.376-2.936,3.233-7.041,5.573-12.316l3.372,0.206l3.303-0.206 c-1.331,2.385-3.785,7.041-7.363,13.968c-3.303,6.423-6.398,12.616-9.289,18.579c-3.44,7.11-5.666,11.973-6.674,14.587 c-0.275,0-0.734-0.046-1.377-0.138c-0.643-0.093-1.146-0.138-1.514-0.138l-2.958,0.206c0.779-1.33,2.063-3.829,3.853-7.5 C157.659,372.979,158.461,371.328,159.517,369.171z"/><path d="M224.746,373.777l-1.514,5.874c-2.019,1.002-4.187,1.743-6.502,2.22 c-2.317,0.479-4.691,0.718-7.122,0.718c-7.523,0-13.67-2.084-18.44-6.253c-4.954-4.305-7.432-9.939-7.432-16.904 c0-8.564,2.684-15.161,8.051-19.788c4.908-4.215,11.354-6.322,19.335-6.322c2.385,0,4.816,0.287,7.294,0.86 c2.478,0.574,4.725,1.41,6.743,2.512l-1.583,7.087h-0.963c-1.285-1.834-2.971-3.348-5.058-4.541 c-2.088-1.192-4.209-1.789-6.364-1.789c-5.322,0-9.427,2.243-12.317,6.731c-2.477,3.847-3.716,8.609-3.716,14.289 c0,6.045,1.422,10.889,4.267,14.529c2.844,3.641,6.881,5.46,12.11,5.46c2.155,0,4.346-0.464,6.571-1.392 c2.225-0.928,4.14-2.16,5.745-3.7L224.746,373.777z"/><path d="M233.76,334.561c4.128,0,7.936,0,11.422,0c3.485,0,6.628,0,9.427,0h1.514h1.721h1.72h1.651 h1.514h1.445h1.308h1.17h1.032h0.963h0.825c0.826,0,1.675,0,2.547,0c0.87,0,1.765,0,2.683,0h0.758v47.203 c-0.551,0-1.4-0.059-2.546-0.173c-1.147-0.114-2.042-0.172-2.684-0.172c-0.506,0-1.331,0.058-2.478,0.172 c-1.147,0.114-2.02,0.173-2.615,0.173v-42.111l-10.527-0.207l-10.527,0.207v42.111c-0.551,0-1.4-0.059-2.546-0.173 c-1.147-0.114-2.02-0.172-2.615-0.172c-0.551,0-1.399,0.058-2.546,0.172c-1.147,0.114-2.019,0.173-2.614,0.173V334.561z"/><path d="M287.637,334.561c0.779,0,1.789,0.058,3.027,0.172c1.238,0.115,1.949,0.172,2.133,0.172 c0.78,0,1.422-0.023,1.927-0.068c1.972-0.184,3.051-0.275,3.234-0.275v47.203c-0.78,0-1.423-0.024-1.927-0.069 c-1.973-0.185-3.051-0.275-3.234-0.275c-0.78,0-1.789,0.058-3.027,0.172s-1.95,0.173-2.133,0.173V334.561z"/><path d="M337.936,343.918l-7.981,11.354l0.963,1.586c2.247,4.091,4.507,8.17,6.777,12.237 c2.271,4.068,4.508,8.285,6.709,12.651c-0.643,0-1.766-0.055-3.371-0.164c-1.606-0.109-2.478-0.163-2.615-0.163 c-0.643,0-1.743,0.054-3.303,0.163s-2.432,0.164-2.614,0.164c-1.423-2.853-3.303-6.51-5.643-10.973 c-1.147-2.162-2.294-4.348-3.44-6.557l-6.33,9.977c-0.597,0.926-1.377,2.241-2.34,3.949 c-0.734,1.248-1.376,2.449-1.927,3.604l-3.44-0.327l-3.371,0.327c1.926-2.768,3.623-5.213,5.092-7.335 c2.431-3.505,4.082-5.927,4.954-7.265c1.283-1.891,2.866-4.313,4.747-7.265l-14.105-25.321 c0.642,0,1.651,0.068,3.027,0.206c1.377,0.138,2.408,0.206,3.097,0.206c0.642,0,1.651-0.068,3.027-0.206 c1.377-0.138,2.408-0.206,3.097-0.206c1.192,2.569,2.936,6.032,5.229,10.39c1.101,2.11,2.202,4.197,3.303,6.262 c3.44-5.55,6.903-11.101,10.391-16.651l3.371,0.206l3.372-0.206L337.936,343.918z"/><path d="M368.073,369.171c-1.331-2.844-3.349-6.513-6.055-11.009 c-0.505-0.826-3.097-5-7.775-12.523c-3.12-5-5.345-8.693-6.675-11.078c0.688,0,1.721,0.068,3.097,0.206 s2.408,0.206,3.097,0.206c0.688,0,1.72-0.068,3.096-0.206c1.377-0.138,2.409-0.206,3.097-0.206 c0.596,1.238,1.834,3.486,3.716,6.742c0.366,0.598,2.179,3.717,5.436,9.358c2.202,3.763,3.555,6.147,4.061,7.156 c1.101-1.696,2.958-5.343,5.573-10.94c1.376-2.936,3.233-7.041,5.573-12.316l3.372,0.206l3.303-0.206 c-1.331,2.385-3.785,7.041-7.363,13.968c-3.303,6.423-6.398,12.616-9.289,18.579c-3.44,7.11-5.666,11.973-6.674,14.587 c-0.275,0-0.734-0.046-1.377-0.138c-0.643-0.093-1.146-0.138-1.514-0.138l-2.958,0.206c0.779-1.33,2.063-3.829,3.853-7.5 C366.216,372.979,367.018,371.328,368.073,369.171z"/><path d="M178.4,460.807v-3.839c5.356-5,9.136-8.689,11.338-11.071 c4.464-4.76,7.886-9.195,10.268-13.302c2.976-5.179,4.464-10.118,4.464-14.82c0-3.451-0.745-6.339-2.232-8.66 c-1.785-2.737-4.345-4.106-7.678-4.106c-2.798,0-4.971,1.518-6.518,4.553c-1.25,2.5-1.875,5.328-1.875,8.482l-0.893,0.178 c-2.143-2.618-4.464-4.582-6.964-5.893c1.429-3.809,3.824-6.65,7.188-8.525c3.361-1.875,7.216-2.813,11.562-2.813 c5.893,0,10.653,1.221,14.284,3.66c4.226,2.857,6.339,7.113,6.339,12.768c0,4.105-1.102,7.737-3.304,10.891 c-1.249,1.846-2.827,3.721-4.731,5.625c-0.655,0.656-1.756,1.639-3.303,2.946c-2.857,2.441-5.714,4.94-8.571,7.499 c-2.381,2.143-4.196,3.84-5.446,5.09l0.09,0.446h11.428c1.487,0,3.778-0.119,6.874-0.357 c3.095-0.237,5.415-0.357,6.964-0.357c-0.12,1.311-0.224,2.441-0.313,3.393c-0.089,0.953-0.134,1.757-0.134,2.411 c0,1.25,0.045,2.292,0.134,3.124c0.089,0.835,0.192,1.728,0.313,2.679H178.4z"/><path d="M267.679,429.559c0,7.321-0.566,12.828-1.696,16.518c-1.131,3.69-2.768,6.815-4.91,9.374 c-3.81,4.405-8.69,6.606-14.642,6.606c-3.869,0-7.143-0.745-9.82-2.232c-2.679-1.486-4.941-3.839-6.785-7.053 c-1.846-3.214-3.096-6.502-3.75-9.865c-0.655-3.361-0.982-7.156-0.982-11.383c0-3.75,0.327-7.5,0.982-11.249 c0.654-3.75,1.755-6.903,3.304-9.464c3.928-6.547,9.7-9.82,17.319-9.82c7.618,0,13.183,3.006,16.695,9.018 C266.251,414.889,267.679,421.406,267.679,429.559z M246.52,458.039c3.095,0,5.237-2.321,6.429-6.964 c1.011-3.928,1.518-10.504,1.518-19.73c0-9.821-0.551-16.664-1.651-20.534c-1.103-3.868-3.141-5.803-6.116-5.803 c-3.273,0-5.49,2.203-6.651,6.606c-1.16,4.405-1.74,11.398-1.74,20.98c0,9.345,0.415,15.624,1.25,18.838 C240.687,455.838,243.008,458.039,246.52,458.039z"/><path d="M287.855,410.811c-3.393,1.965-6.875,3.75-10.445,5.357 c-0.478-0.834-0.998-1.592-1.563-2.277c-0.566-0.684-1.266-1.413-2.099-2.188v-0.714c4.047-1.309,8.393-2.976,13.035-4.999 c3.451-1.547,7.678-3.541,12.678-5.982l0.714,0.447v60.798c-1.013-0.12-1.756-0.179-2.232-0.179 c-2.084-0.179-3.393-0.268-3.928-0.268c-1.31,0-2.5,0.059-3.571,0.179c-1.071,0.118-1.935,0.208-2.589,0.268V410.811z"/><path d="M354.992,401.525l0.625,1.697c-4.167,7.083-7.738,13.332-10.714,18.748 c-3.69,6.727-7.083,13.229-10.178,19.508c-3.096,6.279-6.131,12.871-9.106,19.774c-1.31-0.12-2.441-0.223-3.393-0.313 c-0.952-0.089-1.756-0.134-2.41-0.134c-1.25,0-2.292,0.045-3.125,0.134c-0.834,0.09-1.727,0.192-2.678,0.313 c5.653-8.57,11.1-17.021,16.338-25.354c5.535-8.868,10.088-16.518,13.659-22.945l-29.729,0.804 c0.118-1.011,0.223-2.157,0.313-3.437c0.089-1.279,0.134-2.188,0.134-2.724c0-1.309-0.045-2.38-0.134-3.214 c-0.09-0.833-0.194-1.785-0.313-2.857H354.992z"/></g></g></svg>